<!-- Generated by IcoMoon.io -->
<svg version="1.1" xmlns="http://www.w3.org/2000/svg" width="131" height="32" viewBox="0 0 131 32">
<title>emma_logo</title>
<path fill="#1e2b5a" d="M22.444 25.344c0.622 0.184 1.128 0.599 1.45 1.174 0.645 1.151 0.207 2.624-0.967 3.246-1.266 0.691-2.624 1.197-4.051 1.496-1.105 0.253-2.233 0.368-3.338 0.368-2.969 0-5.847-0.852-8.356-2.463-3.522-2.256-5.939-5.755-6.814-9.829-1.842-8.402 3.499-16.735 11.855-18.553 3.591-0.783 7.343-0.276 10.566 1.45 1.174 0.622 1.611 2.072 0.99 3.246-0.622 1.151-2.072 1.611-3.246 0.99-2.233-1.174-4.834-1.519-7.297-0.99-5.801 1.266-9.484 7.021-8.218 12.845 0.622 2.808 2.302 5.225 4.719 6.791 2.417 1.542 5.294 2.072 8.080 1.45 0.99-0.207 1.934-0.575 2.808-1.036 0.552-0.299 1.197-0.368 1.819-0.184zM22.352 16.436c0 0.138-0.023 0.276-0.138 0.437-0.046 0.253-0.161 0.483-0.322 0.691-2.256 3.039-5.755 3.338-6.537 3.338s-4.282-0.322-6.537-3.338c-0.138-0.207-0.253-0.437-0.322-0.691-0.023-0.138-0.046-0.299-0.046-0.437 0.023-0.99 0.806-1.772 1.796-1.772 0.253 0 0.483 0.046 0.691 0.138s0.391 0.207 0.552 0.368c0.161 0.115 0.299 0.253 0.437 0.368 0.783 0.575 1.98 1.312 3.476 1.312s2.693-0.714 3.476-1.312c0.161-0.115 0.299-0.253 0.437-0.368 0.161-0.161 0.345-0.276 0.552-0.368s0.437-0.138 0.691-0.138c0.99 0 1.796 0.783 1.796 1.772zM57.087 10.197c1.772 1.749 2.762 4.051 2.785 6.514v11.809c0 1.312-1.082 2.394-2.394 2.394s-2.348-1.036-2.348-2.394v-11.648c0-2.532-2.072-4.581-4.604-4.581s-4.604 2.049-4.604 4.581v11.648c0 1.335-1.036 2.394-2.348 2.394s-2.394-1.059-2.394-2.394v-11.648c0-2.532-2.049-4.581-4.558-4.581-2.532 0-4.604 2.049-4.604 4.581v11.625c0 1.335-1.036 2.394-2.348 2.394-1.335 0-2.394-1.036-2.394-2.394v-11.648c0-5.156 4.189-9.346 9.346-9.346 2.67 0 5.202 1.151 6.952 3.154 1.749-2.003 4.282-3.154 6.952-3.154 2.463 0 4.788 0.967 6.56 2.693zM92.79 10.151c1.772 1.726 2.762 4.028 2.785 6.491v11.809c0 1.312-1.082 2.394-2.394 2.394s-2.348-1.036-2.348-2.394v-11.648c0-2.532-2.072-4.581-4.604-4.581s-4.604 2.049-4.604 4.581v11.648c0 1.335-1.036 2.394-2.348 2.394s-2.394-1.059-2.394-2.394v-11.648c0-2.532-2.049-4.581-4.558-4.581-2.532 0-4.604 2.049-4.604 4.581v11.648c0 1.335-1.036 2.394-2.348 2.394-1.335 0-2.394-1.036-2.394-2.394v-11.648c0-5.156 4.189-9.346 9.346-9.346 2.67 0 5.202 1.151 6.952 3.154 1.749-2.003 4.282-3.154 6.952-3.154 2.463 0 4.788 0.967 6.56 2.693zM118.065 11.026c-2.118-2.21-5.018-3.43-8.172-3.43-3.177 0-6.123 1.22-8.333 3.43s-3.43 5.179-3.43 8.356c0 3.154 1.22 6.077 3.43 8.195 2.187 2.118 5.133 3.269 8.333 3.269 2.716 0 4.88-0.714 6.722-2.21 0.115 1.335 1.427 2.21 2.302 2.21 1.381 0 2.394-1.013 2.394-2.394v-9.047c0.023-3.2-1.151-6.169-3.246-8.379zM116.615 19.405c0 1.865-0.691 3.568-1.934 4.811s-2.946 1.934-4.788 1.934c-1.865 0-3.637-0.691-4.949-1.934-1.358-1.266-2.095-2.969-2.095-4.811 0-3.844 3.223-7.067 7.044-7.067 1.819 0 3.522 0.737 4.788 2.095 1.243 1.312 1.934 3.085 1.934 4.972zM129.529 4.719c0 2.624-2.095 4.742-4.65 4.742-2.578 0-4.696-2.118-4.696-4.742-0.023-2.601 2.095-4.719 4.673-4.719 2.555 0 4.673 2.118 4.673 4.719zM128.309 4.719c0-2.003-1.496-3.545-3.453-3.545-1.98 0-3.453 1.542-3.453 3.545 0 2.026 1.496 3.568 3.453 3.568s3.453-1.542 3.453-3.568zM126.72 6.008c0.138 0.138 0.207 0.299 0.207 0.46 0 0.368-0.276 0.645-0.622 0.645-0.207 0-0.391-0.092-0.506-0.23l-1.105-1.22h-0.391v0.783c0 0.391-0.276 0.668-0.622 0.668-0.368 0-0.668-0.299-0.668-0.668v-3.361c0-0.368 0.299-0.668 0.691-0.668h1.243c1.082 0 1.865 0.668 1.865 1.611 0 0.552-0.253 0.99-0.691 1.289l0.599 0.691zM124.28 4.558h0.622c0.322 0 0.529-0.207 0.529-0.506 0-0.322-0.23-0.506-0.529-0.506h-0.622v1.013z"></path>
</svg>
